<!DOCTYPE svg PUBLIC "-//W3C//DTD SVG 1.1//EN" "http://www.w3.org/Graphics/SVG/1.1/DTD/svg11.dtd">
<!-- Uploaded to: SVG Repo, www.svgrepo.com, Transformed by: SVG Repo Mixer Tools -->
<svg width="800px" height="800px" viewBox="0 0 24 24" fill="none" xmlns="http://www.w3.org/2000/svg">
<g id="SVGRepo_bgCarrier" stroke-width="0"/>
<g id="SVGRepo_tracerCarrier" stroke-linecap="round" stroke-linejoin="round"/>
<g id="SVGRepo_iconCarrier"> <path d="M15.8571 12C15.8571 14.1302 14.1302 15.8571 12 15.8571C9.86972 15.8571 8.14282 14.1302 8.14282 12C8.14282 9.86972 9.86972 8.14282 12 8.14282C14.1302 8.14282 15.8571 9.86972 15.8571 12ZM15.8571 12L15.8571 13.2857C15.8571 14.7059 17.0084 15.8571 18.4286 15.8571C19.3408 15.8571 20.1422 15.3821 20.5986 14.6658C20.8528 14.2671 21 13.7936 21 13.2857V12C21 7.02944 16.9706 3 12 3C7.02944 3 3 7.02944 3 12C3 16.9706 7.02944 21 12 21C13.9122 21 15.6851 20.4037 17.1429 19.3868" stroke="#ffffff" stroke-width="1.5" stroke-linecap="round" stroke-linejoin="round"/> </g>
</svg>