<!DOCTYPE svg PUBLIC "-//W3C//DTD SVG 1.1//EN" "http://www.w3.org/Graphics/SVG/1.1/DTD/svg11.dtd">
<!-- Uploaded to: SVG Repo, www.svgrepo.com, Transformed by: SVG Repo Mixer Tools -->
<svg fill="#ffffff" width="800px" height="800px" viewBox="0 0 32 32" version="1.1" xmlns="http://www.w3.org/2000/svg" stroke="#ffffff">
<g id="SVGRepo_bgCarrier" stroke-width="0"/>
<g id="SVGRepo_tracerCarrier" stroke-linecap="round" stroke-linejoin="round"/>
<g id="SVGRepo_iconCarrier"> <title>figma</title> <path d="M20.692 12.227c-2.084 0-3.773 1.689-3.773 3.773s1.689 3.773 3.773 3.773v0h0.122c2.084 0 3.773-1.689 3.773-3.773s-1.689-3.773-3.773-3.773v0zM20.814 21.611h-0.122c-3.099 0-5.611-2.512-5.611-5.611s2.512-5.611 5.611-5.611v0h0.122c3.099 0 5.611 2.512 5.611 5.611s-2.512 5.611-5.611 5.611v0zM11.186 21.611c-0 0-0.001 0-0.001 0-2.084 0-3.773 1.689-3.773 3.773s1.689 3.773 3.773 3.773c0.011 0 0.023-0 0.034-0h-0.002c0.003 0 0.007 0 0.011 0 2.121 0 3.843-1.714 3.854-3.833v-3.713zM11.216 30.996c-0.013 0-0.029 0-0.045 0-3.099 0-5.611-2.512-5.611-5.611s2.512-5.611 5.611-5.611c0.005 0 0.010 0 0.015 0h5.733v5.55c-0.012 3.135-2.557 5.672-5.693 5.672-0.003 0-0.006 0-0.009 0h0zM11.186 12.227c-2.084 0-3.773 1.689-3.773 3.773s1.689 3.773 3.773 3.773v0h3.895v-7.545zM16.918 21.611h-5.732c-3.099 0-5.611-2.512-5.611-5.611s2.512-5.611 5.611-5.611v0h5.733v11.222zM11.186 2.843c-2.084 0-3.773 1.689-3.773 3.773s1.689 3.773 3.773 3.773v0h3.895v-7.547zM16.918 12.227h-5.732c-3.099 0-5.612-2.512-5.612-5.612s2.512-5.612 5.612-5.612v0h5.733v11.223zM16.918 10.389h3.895c2.080-0.005 3.764-1.692 3.764-3.773s-1.684-3.768-3.764-3.773h-3.895zM20.814 12.227h-5.733v-11.223h5.733c3.099 0 5.612 2.512 5.612 5.612s-2.512 5.612-5.612 5.612v0z"/> </g>
</svg>